<?xml version="1.0" encoding="UTF-8" standalone="no"?><!DOCTYPE svg PUBLIC "-//W3C//DTD SVG 1.1//EN" "http://www.w3.org/Graphics/SVG/1.1/DTD/svg11.dtd"><svg width="100%" height="100%" viewBox="0 0 72 72" version="1.1" xmlns="http://www.w3.org/2000/svg" xmlns:xlink="http://www.w3.org/1999/xlink" xml:space="preserve" xmlns:serif="http://www.serif.com/" style="fill-rule:evenodd;clip-rule:evenodd;stroke-linejoin:round;stroke-miterlimit:2;"><rect id="Artboard26" x="0" y="0" width="72" height="72" style="fill:none;"/><g><g id="file_000000007ae081fa814405c790fbad16.png"><path d="M30.799,45.13c-5.563,-1.562 -12.794,-3.596 -12.985,-3.669c-1.678,-0.634 -1.881,-0.97 -6.374,-5.135c-0.091,-0.085 -2.465,-1.807 -2.397,-5.129c0.039,-1.884 1.064,-3.809 2.625,-7.987c0.84,-2.249 1.125,-3.492 2.787,-3.722c2.274,-0.315 2.871,2.614 3.038,3.053c2.891,7.586 2.715,7.944 4.078,8.381c0.524,0.168 0.529,0.125 6.615,1.869c0.178,0.051 0.199,0.047 0.327,0.073l2.286,12.268Z" style="fill:url(#_Linear1);"/><path d="M28.513,32.863c0.023,0.004 0.049,0.01 0.079,0.017c-0.019,-2.005 -1.126,-7.071 -0.766,-8.032c0.626,-1.672 2.737,-1.47 3.667,-0.245c1.411,1.857 8.269,11.444 8.624,11.638c4.662,1.38 18.698,5.378 19.991,6.134c5.241,3.062 2.682,10.694 -3.035,10.132c-1.315,-0.129 -1.253,-0.37 -15.896,-4.468c-0.934,-0.262 -4.822,-1.348 -10.379,-2.908l-2.286,-12.268Z" style="fill:url(#_Linear2);"/></g></g><defs><linearGradient id="_Linear1" x1="0" y1="0" x2="1" y2="0" gradientUnits="userSpaceOnUse" gradientTransform="matrix(8.08957,-1.311066,1.311066,8.08957,25.121902,41.222926)"><stop offset="0" style="stop-color:#fb504e;stop-opacity:1"/><stop offset="1" style="stop-color:#d40200;stop-opacity:1"/></linearGradient><linearGradient id="_Linear2" x1="0" y1="0" x2="1" y2="0" gradientUnits="userSpaceOnUse" gradientTransform="matrix(38.757271,13.101183,-13.101183,38.757271,27.786987,37.560629)"><stop offset="0" style="stop-color:#fb504e;stop-opacity:1"/><stop offset="1" style="stop-color:#f2110d;stop-opacity:1"/></linearGradient></defs></svg>